<svg xmlns="http://www.w3.org/2000/svg" xmlns:xlink="http://www.w3.org/1999/xlink" viewBox="0 0 115.52 115.52"><defs><style>.cls-1{fill:none;}.cls-2{clip-path:url(#clip-path);}.cls-3{fill:#1f1f24;}.cls-4{fill:#21cd8b;}.cls-5{fill:#fff;}</style><clipPath id="clip-path" transform="translate(-240.24 -105.57)"><rect class="cls-1" width="596" height="842.96"/></clipPath></defs><title>Asset 2</title><g id="Layer_2" data-name="Layer 2"><g id="Layer_1-2" data-name="Layer 1"><g class="cls-2"><rect class="cls-3" width="115.52" height="115.52"/><rect class="cls-4" x="11.89" y="19.02" width="42.54" height="38.46"/><path class="cls-5" d="M266.42,151.14h2.4V149h-2.4v-2.85h-3.33V149h-1.72v2.12h1.72v5.2c0,.64,0,1.15,0,1.72.13,1.66.94,2.46,3.42,2.46a12.63,12.63,0,0,0,2.06-.17v-2.12c-1.7.11-2.08-.15-2.16-1.27,0-.3,0-.68,0-1.07Z" transform="translate(-240.24 -105.57)"/><path class="cls-5" d="M280.31,151.75c-.26-2-1.64-3.12-4-3.12a4.48,4.48,0,0,0-2.64.73l-.93,1.35v-6.17H269.4v15.71h3.33V155c0-2.88,1-4.05,2.29-4.07a1.83,1.83,0,0,1,2,1.86c0,.58,0,1.15,0,1.58v5.88h3.33v-6.39A15.29,15.29,0,0,0,280.31,151.75Z" transform="translate(-240.24 -105.57)"/><path class="cls-5" d="M286.74,150.93c1.23,0,2,.82,2.17,2.42h-4.46C284.72,151.67,285.55,150.93,286.74,150.93Zm5.63,3.46c0-3-1.87-5.76-5.48-5.76a5.66,5.66,0,0,0-5.86,6c0,4,2.48,5.92,5.65,5.92,2.76,0,4.88-1.38,5.49-4h-3.29a2,2,0,0,1-2.14,1.7c-1.25,0-2.19-.64-2.38-2.8h7.94C292.34,155.05,292.37,154.68,292.37,154.39Z" transform="translate(-240.24 -105.57)"/><path class="cls-5" d="M305.18,148.49l1.55,5h-3.12Zm2.38,7.62,1.34,4.14h3.61l-5.23-14.65h-4.11l-5.29,14.65h3.54l1.36-4.14Z" transform="translate(-240.24 -105.57)"/><path class="cls-5" d="M319.36,157.59a13.49,13.49,0,0,1-1.48,0h-1.49v-9.45h1.51c.61,0,1,0,1.48.06,2.06.24,3.42,1.76,3.42,4.52S321.42,157.36,319.36,157.59Zm.83-11.91a14.24,14.24,0,0,0-1.87-.08h-5.26v14.65h5.24a12.67,12.67,0,0,0,1.87-.09c3.4-.4,6.14-2.91,6.14-7.43S323.59,146.06,320.19,145.68Z" transform="translate(-240.24 -105.57)"/><path class="cls-5" d="M331,152.05v-3.86h1.84c.47,0,.83,0,1.13,0,1.08.13,1.87.55,1.87,1.89s-.92,1.8-2,1.91c-.3,0-.66,0-1.12,0Zm7.64,4.57c-.17-1.7-.74-2.87-2.23-3.42a3.57,3.57,0,0,0,2.91-3.61c0-2.57-1.76-3.63-3.89-3.89a19,19,0,0,0-2.2-.1h-5.57v14.65H331v-5.76h1.31c.41,0,.77,0,1.17,0,1.1.09,1.72,1,1.91,2.62a12.64,12.64,0,0,0,.7,3.12h3.63A7.54,7.54,0,0,1,338.66,156.62Z" transform="translate(-240.24 -105.57)"/><path class="cls-5" d="M265.77,189.76V178.45h-3.34v11.31Zm-1.68-15.69a1.69,1.69,0,1,0,0,3.38,1.69,1.69,0,1,0,0-3.38Z" transform="translate(-240.24 -105.57)"/><path class="cls-5" d="M278.14,181.27c-.25-2-1.63-3.12-4-3.12a4.44,4.44,0,0,0-2.63.72l-.94,1.36v-1.78h-3.33v11.31h3.33v-5.24c0-2.89,1-4.08,2.3-4.08a1.82,1.82,0,0,1,2,1.87c.05.57.05,1.15.05,1.57v5.88h3.33v-6.39A13.52,13.52,0,0,0,278.14,181.27Z" transform="translate(-240.24 -105.57)"/><path class="cls-5" d="M282.9,189.76V178.45h-3.34v11.31Zm-1.68-15.69a1.69,1.69,0,1,0,0,3.38,1.69,1.69,0,1,0,0-3.38Z" transform="translate(-240.24 -105.57)"/><path class="cls-5" d="M288.35,180.65h2.4v-2.12h-2.4v-2.84H285v2.84H283.3v2.12H285v5.2c0,.64,0,1.15,0,1.72.13,1.66.94,2.47,3.42,2.47a13.85,13.85,0,0,0,2.06-.17v-2.13c-1.7.11-2.08-.14-2.17-1.27,0-.3,0-.68,0-1.06Z" transform="translate(-240.24 -105.57)"/><path class="cls-5" d="M294.66,189.76V178.45h-3.34v11.31ZM293,174.07a1.69,1.69,0,1,0,0,3.38,1.69,1.69,0,1,0,0-3.38Z" transform="translate(-240.24 -105.57)"/><path class="cls-5" d="M300.5,187.77c-.92,0-1.53-.45-1.53-1.3,0-1.32,1.42-1.83,3.48-1.66v.83A2,2,0,0,1,300.5,187.77Zm2.22,2H306a19.44,19.44,0,0,1-.21-2.86v-3.44c0-.66,0-1.3-.06-1.83-.17-2-1.38-3.48-4.74-3.48-2.76,0-4.94,1.46-5,4h3.19c.08-1.12.65-1.76,1.69-1.76a1.4,1.4,0,0,1,1.58,1.23,8.71,8.71,0,0,1,0,1v.19h-.72c-4,0-6.18,1.44-6.18,3.91a3.34,3.34,0,0,0,3.63,3.31,5.26,5.26,0,0,0,2.8-.74l.51-1.21Z" transform="translate(-240.24 -105.57)"/><path class="cls-5" d="M311.22,180.65h2.39v-2.12h-2.39v-2.84h-3.34v2.84h-1.72v2.12h1.72v5.2c0,.64,0,1.15,0,1.72.13,1.66.94,2.47,3.42,2.47a13.85,13.85,0,0,0,2.06-.17v-2.13c-1.7.11-2.08-.14-2.16-1.27,0-.3,0-.68,0-1.06Z" transform="translate(-240.24 -105.57)"/><path class="cls-5" d="M317.52,189.76V178.45h-3.33v11.31Zm-1.68-15.69a1.69,1.69,0,1,0,0,3.38,1.69,1.69,0,1,0,0-3.38Z" transform="translate(-240.24 -105.57)"/><polygon class="cls-5" points="89.99 72.87 86.39 72.87 83.8 81.62 81.18 72.87 77.49 72.87 81.93 84.19 85.58 84.19 89.99 72.87"/><path class="cls-5" d="M335.35,180.44c1.23,0,2,.83,2.17,2.42h-4.46C333.33,181.18,334.16,180.44,335.35,180.44ZM341,183.9c0-3-1.87-5.75-5.48-5.75a5.66,5.66,0,0,0-5.86,6c0,4,2.48,5.92,5.65,5.92,2.76,0,4.88-1.38,5.5-4H337.5a2,2,0,0,1-2.15,1.7c-1.25,0-2.19-.64-2.38-2.81h7.94A8.65,8.65,0,0,0,341,183.9Z" transform="translate(-240.24 -105.57)"/></g></g></g></svg>